<?xml version="1.0" encoding="UTF-8"?>
<svg version="1.1" xmlns="http://www.w3.org/2000/svg" width="2048" height="2048">
<path d="M0 0 C1.08535538 -0.00281982 2.17071075 -0.00563965 3.28895569 -0.00854492 C4.49003464 -0.00652069 5.69111359 -0.00449646 6.92858887 -0.00241089 C8.1853392 -0.00416321 9.44208954 -0.00591553 10.73692322 -0.00772095 C14.19344221 -0.01229476 17.64993149 -0.01050594 21.10645103 -0.00734186 C24.71615049 -0.00481799 28.32584732 -0.00715587 31.93554688 -0.00872803 C37.99849914 -0.01054964 44.06143923 -0.00814362 50.12438965 -0.00338745 C57.14363661 0.00205516 64.16285452 0.00029249 71.18210077 -0.00521386 C77.19822517 -0.00974521 83.21434081 -0.01039543 89.23046637 -0.00777519 C92.82821472 -0.00621254 96.42594941 -0.00601832 100.0236969 -0.00931168 C104.03237643 -0.01272458 108.04100554 -0.00800029 112.04968262 -0.00241089 C113.85130104 -0.00544724 113.85130104 -0.00544724 115.6893158 -0.00854492 C117.31734886 -0.00431519 117.31734886 -0.00431519 118.97827148 0 C120.40187611 0.00056554 120.40187611 0.00056554 121.85424042 0.0011425 C123.98913574 0.12698364 123.98913574 0.12698364 124.98913574 1.12698364 C126.36482611 1.31122957 127.74897717 1.43293264 129.13366699 1.52835083 C130.02374954 1.59241119 130.91383209 1.65647156 131.83088684 1.72247314 C133.30140755 1.82215897 133.30140755 1.82215897 134.80163574 1.92385864 C136.91259398 2.07650522 139.02351362 2.22968619 141.13439941 2.3833313 C142.81207901 2.50360687 142.81207901 2.50360687 144.52365112 2.62631226 C162.79040942 3.9476148 180.99873541 5.5077672 199.17663574 7.75198364 C200.03281494 7.85603516 200.88899414 7.96008667 201.77111816 8.06729126 C204.19242282 8.3638278 206.61244368 8.66890666 209.03210449 8.97854614 C209.72579636 9.06490326 210.41948822 9.15126038 211.13420105 9.24023438 C215.17313529 9.77579768 219.02854809 10.60633544 222.96009827 11.63269043 C226.44324942 12.48121984 229.97225781 13.01351301 233.51257324 13.56448364 C234.29879059 13.69008667 235.08500793 13.8156897 235.89505005 13.94509888 C238.38423193 14.3423754 240.87410845 14.73504386 243.36413574 15.12698364 C269.43626363 19.24845585 269.43626363 19.24845585 274.77722168 21.0864563 C278.34130698 22.24107256 281.91941594 23.00462407 285.59069824 23.71292114 C287.06600097 24.00697976 288.54125999 24.30125777 290.01647949 24.59573364 C292.30610817 25.04829497 294.59614625 25.49848236 296.88708496 25.94436646 C305.1525513 27.55914892 313.11475482 29.32321367 321.07116699 32.14065552 C326.51523578 33.9808528 332.10488092 35.29576195 337.67663574 36.68948364 C344.44022248 38.38696701 351.14692636 40.08265902 357.7388916 42.36550903 C360.32555553 43.2408269 362.93111743 44.02939628 365.54772949 44.81057739 C366.99309082 45.2427356 366.99309082 45.2427356 368.46765137 45.68362427 C370.43565278 46.26947815 372.40440248 46.8528244 374.37390137 47.43362427 C379.8897735 49.08801745 385.20789404 50.96406785 390.53137207 53.15652466 C394.65503513 54.78477147 398.87821024 56.07566484 403.11413574 57.37698364 C403.97522949 57.64510864 404.83632324 57.91323364 405.72351074 58.18948364 C407.81093925 58.83890585 409.89987673 59.48347471 411.98913574 60.12698364 C411.98913574 60.78698364 411.98913574 61.44698364 411.98913574 62.12698364 C413.43159668 62.27200317 413.43159668 62.27200317 414.90319824 62.41995239 C419.63150134 63.0986505 423.91770464 64.74543601 428.36413574 66.43948364 C429.16335449 66.73532349 429.96257324 67.03116333 430.78601074 67.33596802 C435.53409077 69.11457728 440.16426039 71.0742163 444.78405762 73.16091919 C448.31999626 74.71004554 451.92908782 76.04611318 455.55163574 77.37698364 C456.27415527 77.64510864 456.9966748 77.91323364 457.74108887 78.18948364 C459.48948388 78.83789504 461.23916966 79.48282435 462.98913574 80.12698364 C462.98913574 80.78698364 462.98913574 81.44698364 462.98913574 82.12698364 C463.96946777 82.27200317 463.96946777 82.27200317 464.96960449 82.41995239 C468.93933112 83.34947441 472.54887086 84.86510471 476.30163574 86.43948364 C477.02286621 86.73532349 477.74409668 87.03116333 478.48718262 87.33596802 C482.77354219 89.11586442 486.92345917 91.06821175 491.05822754 93.17410278 C495.21304052 95.22445492 499.53469039 96.89955362 503.81726074 98.66213989 C506.98913574 100.12698364 506.98913574 100.12698364 508.91882324 101.59573364 C512.54484069 104.27761824 516.81988924 105.72061565 520.96960449 107.43362427 C525.33419599 109.27891766 529.06296082 111.43869608 532.98913574 114.12698364 C535.07512887 115.22473419 537.18073897 116.28578521 539.30163574 117.31448364 C551.75950862 123.43695698 564.09865248 129.80983627 575.80554199 137.28713989 C581.16546393 140.70220895 586.68856286 143.7873799 592.26696777 146.82937622 C596.15951202 148.98126372 599.52780953 151.31393257 602.98913574 154.12698364 C604.69580305 155.10484371 606.42621381 156.04229544 608.17663574 156.93948364 C612.99689207 159.49943059 617.39560561 162.39135369 621.79772949 165.61135864 C623.80527171 166.99981922 625.77930741 168.10009303 627.98913574 169.12698364 C627.98913574 169.78698364 627.98913574 170.44698364 627.98913574 171.12698364 C628.69683105 171.38092896 629.40452637 171.63487427 630.13366699 171.89651489 C633.26253439 173.24479565 635.85943398 174.89999006 638.67663574 176.81448364 C639.72722168 177.52733521 640.77780762 178.24018677 641.86022949 178.97463989 C642.89276855 179.68491333 643.92530762 180.39518677 644.98913574 181.12698364 C645.8876123 181.74444458 646.78608887 182.36190552 647.71179199 182.99807739 C652.89335527 186.59393815 657.96737662 190.31208313 662.98913574 194.12698364 C667.37507552 197.44141018 671.78728002 200.71396408 676.23913574 203.93948364 C681.35723351 207.6493897 686.41387514 211.43461576 691.45788574 215.24417114 C693.26536823 216.58862571 695.11479566 217.87742359 696.98913574 219.12698364 C696.98913574 219.78698364 696.98913574 220.44698364 696.98913574 221.12698364 C697.57050293 221.40026489 698.15187012 221.67354614 698.75085449 221.95510864 C704.52006545 224.97563794 709.50301992 229.47143033 714.37976074 233.74417114 C715.85118313 235.00845154 717.3865349 236.19733193 718.92663574 237.37698364 C719.94757324 238.24323364 719.94757324 238.24323364 720.98913574 239.12698364 C720.98913574 239.78698364 720.98913574 240.44698364 720.98913574 241.12698364 C721.68394043 241.33967896 722.37874512 241.55237427 723.09460449 241.77151489 C726.78528339 243.49980852 729.40580703 246.01758472 732.30163574 248.81448364 C733.46237751 249.91159643 734.62383243 251.00795521 735.78601074 252.10354614 C736.34095215 252.62980591 736.89589355 253.15606567 737.46765137 253.69827271 C739.28969573 255.4092168 741.15795129 257.05836888 743.05163574 258.68948364 C751.19642372 265.74829989 759.04025064 273.15728573 766.92663574 280.50198364 C767.55320068 281.08472046 768.17976563 281.66745728 768.82531738 282.26785278 C771.4885119 284.75347713 774.11564756 287.25386163 776.68835449 289.83401489 C778.67962442 291.81852329 780.70950814 293.6380004 782.86413574 295.43948364 C786.38173624 298.48012136 789.4021675 301.75362233 792.41101074 305.29104614 C794.48298042 307.70150592 796.71437703 309.90770685 798.98913574 312.12698364 C803.44989115 316.49303087 807.73505323 320.91939452 811.80163574 325.65432739 C815.41948317 329.74378708 819.17887418 333.70231597 822.92712402 337.67214966 C832.98913574 348.37299708 832.98913574 348.37299708 832.98913574 351.12698364 C833.86505371 351.48469849 833.86505371 351.48469849 834.75866699 351.84963989 C837.45884479 353.39597639 838.79090122 355.09365749 840.67663574 357.56448364 C841.37272949 358.46167114 842.06882324 359.35885864 842.78601074 360.28323364 C843.51304199 361.22167114 844.24007324 362.16010864 844.98913574 363.12698364 C846.46202347 364.94458977 847.94124294 366.75708261 849.42663574 368.56448364 C850.16655762 369.46940552 850.90647949 370.37432739 851.66882324 371.30667114 C853.2906555 373.27798914 854.91962389 375.24112286 856.55944824 377.19729614 C857.38187012 378.18471802 858.20429199 379.17213989 859.05163574 380.18948364 C860.18278809 381.53719849 860.18278809 381.53719849 861.33679199 382.91213989 C862.98913574 385.12698364 862.98913574 385.12698364 862.98913574 387.12698364 C863.97913574 387.45698364 864.96913574 387.78698364 865.98913574 388.12698364 C867.71569824 390.20901489 867.71569824 390.20901489 869.61413574 392.93948364 C871.87207348 396.14592311 874.12992953 399.3403269 876.51257324 402.45510864 C876.92555664 402.99546753 877.33854004 403.53582642 877.76403809 404.09255981 C878.94155505 405.62746186 880.12154394 407.16046659 881.30163574 408.69338989 C882.98913574 411.12698364 882.98913574 411.12698364 882.98913574 413.12698364 C883.97913574 413.45698364 884.96913574 413.78698364 885.98913574 414.12698364 C887.56726074 416.31448364 887.56726074 416.31448364 889.23913574 419.12698364 C892.06355851 423.73462249 895.11497478 427.9617455 898.47741699 432.18557739 C902.98913574 437.97969682 902.98913574 437.97969682 902.98913574 441.12698364 C903.64913574 441.12698364 904.30913574 441.12698364 904.98913574 441.12698364 C906.38732228 443.20793644 907.67251211 445.27410687 908.92663574 447.43948364 C911.01771023 451.02030322 913.03188756 454.20102909 915.98913574 457.12698364 C917.26500917 459.11865758 918.49055737 461.14306331 919.67663574 463.18948364 C920.29925293 464.25296021 920.92187012 465.31643677 921.56335449 466.41213989 C922.98913574 469.12698364 922.98913574 469.12698364 922.98913574 471.12698364 C923.64913574 471.12698364 924.30913574 471.12698364 924.98913574 471.12698364 C926.46178495 473.30845986 927.8009632 475.47633582 929.11413574 477.75198364 C929.51156982 478.42696899 929.90900391 479.10195435 930.31848145 479.7973938 C932.98340149 484.33966665 935.58180553 488.91944898 938.17663574 493.50198364 C940.38373937 497.39944838 942.63880187 501.18676602 945.17663574 504.87698364 C952.98913574 516.28537405 952.98913574 516.28537405 952.98913574 521.12698364 C953.64913574 521.12698364 954.30913574 521.12698364 954.98913574 521.12698364 C959.56779718 529.69077632 964.11372282 538.26968397 968.48913574 546.93948364 C968.82687012 547.60206177 969.16460449 548.26463989 969.51257324 548.94729614 C971.02219895 551.96030943 972.38484653 554.79500005 972.98913574 558.12698364 C973.64913574 558.12698364 974.30913574 558.12698364 974.98913574 558.12698364 C975.22511475 558.65952759 975.46109375 559.19207153 975.70422363 559.74075317 C980.0481943 569.52337091 984.46465019 579.22779621 989.30554199 588.77542114 C993.94638026 598.01402725 998.17084201 607.36560374 1001.93078613 616.99612427 C1003.15114353 620.10383104 1004.41890497 623.11787775 1005.98913574 626.06448364 C1008.3719967 630.59191946 1010.01834882 635.41688294 1011.77600098 640.21047974 C1013.08595837 643.76862404 1014.43869387 647.25463576 1016.05163574 650.68948364 C1017.89785869 654.70131832 1019.3306538 658.82115711 1020.73913574 663.00198364 C1020.96222412 663.65755249 1021.1853125 664.31312134 1021.41516113 664.98855591 C1022.35351765 667.83093115 1022.98913574 670.11208977 1022.98913574 673.12698364 C1023.64913574 673.12698364 1024.30913574 673.12698364 1024.98913574 673.12698364 C1025.37452515 674.33644653 1025.37452515 674.33644653 1025.7677002 675.57034302 C1026.73337336 678.59755341 1027.70087007 681.62417349 1028.66955566 684.65042114 C1029.08628879 685.95357733 1029.50232075 687.25695798 1029.91760254 688.56057739 C1032.56624571 696.98428029 1032.56624571 696.98428029 1035.56335449 705.28713989 C1037.55176327 710.43644963 1038.97915698 715.7597766 1040.48913574 721.06448364 C1042.85032729 729.38404069 1042.85032729 729.38404069 1045.50866699 737.61135864 C1047.38518865 743.13681096 1048.7711325 748.77929653 1050.17663574 754.43948364 C1050.44927246 755.51005005 1050.72190918 756.58061646 1051.00280762 757.68362427 C1051.25997559 758.71294067 1051.51714355 759.74225708 1051.78210449 760.80276489 C1052.01437744 761.73000366 1052.24665039 762.65724243 1052.48596191 763.61257935 C1052.98913574 766.12698364 1052.98913574 766.12698364 1052.98913574 770.12698364 C1053.64913574 770.12698364 1054.30913574 770.12698364 1054.98913574 770.12698364 C1055.25129883 771.36786743 1055.51346191 772.60875122 1055.78356934 773.88723755 C1056.76037332 778.50614844 1057.74175044 783.12407784 1058.7244873 787.74172974 C1059.14858099 789.73755995 1059.5714465 791.73365156 1059.99304199 793.73001099 C1060.60046145 796.60522526 1061.21234215 799.47945975 1061.82507324 802.35354614 C1062.01161469 803.24127716 1062.19815613 804.12900818 1062.39035034 805.04364014 C1063.12090366 808.4539106 1063.85309342 811.73775417 1065.00500488 815.03347778 C1066.49907316 819.72991519 1067.14241867 824.5341836 1067.89929199 829.39651489 C1068.07165878 830.47325974 1068.24402557 831.55000458 1068.4216156 832.65937805 C1068.96973761 836.08533872 1069.51133384 839.51228159 1070.05163574 842.93948364 C1070.59585983 846.38447727 1071.14157402 849.82919788 1071.69236755 853.27314758 C1072.03465306 855.41372657 1072.37309566 857.55492412 1072.70741272 859.69676208 C1072.86104782 860.65833725 1073.01468292 861.61991241 1073.17297363 862.61062622 C1073.37377281 863.88586906 1073.37377281 863.88586906 1073.57862854 865.18687439 C1073.80422141 867.12387423 1073.80422141 867.12387423 1074.98913574 868.12698364 C1075.39148375 870.63697909 1075.73411202 873.13193696 1076.03991699 875.65432739 C1076.13872665 876.45029327 1076.23753632 877.24625916 1076.33934021 878.06634521 C1076.66647795 880.73166025 1076.9848351 883.39792114 1077.30163574 886.06448364 C1077.46629333 887.43200272 1077.46629333 887.43200272 1077.63427734 888.82714844 C1079.84339663 907.30697249 1081.37050165 925.8271181 1082.73254395 944.38650513 C1082.84935265 945.95288223 1082.84935265 945.95288223 1082.96852112 947.55090332 C1083.11462793 949.52138734 1083.25652964 951.49218893 1083.3936615 953.46331787 C1083.45771683 954.33016205 1083.52177216 955.19700623 1083.58776855 956.09011841 C1083.66840546 957.22913353 1083.66840546 957.22913353 1083.75067139 958.39115906 C1083.81472453 960.15400247 1083.81472453 960.15400247 1084.98913574 961.12698364 C1085.08736667 962.75689919 1085.11545523 964.3910835 1085.11611938 966.0239563 C1085.11893921 967.08406921 1085.12175903 968.14418213 1085.12466431 969.23641968 C1085.12264008 970.40944641 1085.12061584 971.58247314 1085.11853027 972.79104614 C1085.12028259 974.01853577 1085.12203491 975.24602539 1085.12384033 976.51071167 C1085.12749858 979.88666643 1085.12662539 983.26256026 1085.12346125 986.63851166 C1085.12093731 990.16412948 1085.12327528 993.68974463 1085.12484741 997.21536255 C1085.12666901 1003.13707957 1085.12426306 1009.05878414 1085.11950684 1014.98049927 C1085.11406423 1021.83615174 1085.1158269 1028.69177447 1085.12133324 1035.54742622 C1085.12586465 1041.42342446 1085.12651478 1047.29941372 1085.12389457 1053.17541313 C1085.12233195 1056.68932457 1085.12213762 1060.20322202 1085.12543106 1063.71713257 C1085.12884406 1067.63240727 1085.12411957 1071.54764841 1085.11853027 1075.46292114 C1085.12156662 1077.22246124 1085.12156662 1077.22246124 1085.12466431 1079.01754761 C1085.12184448 1080.07766052 1085.11902466 1081.13777344 1085.11611938 1082.23001099 C1085.11574236 1083.1569577 1085.11536533 1084.08390442 1085.11497688 1085.03894043 C1084.98913574 1087.12698364 1084.98913574 1087.12698364 1083.98913574 1088.12698364 C1083.80509384 1089.46665747 1083.68326293 1090.81496852 1083.58776855 1092.16384888 C1083.52370819 1093.03072327 1083.45964783 1093.89759766 1083.39364624 1094.79074097 C1083.29396042 1096.223685 1083.29396042 1096.223685 1083.19226074 1097.68557739 C1083.03955572 1099.74575096 1082.8863771 1101.80588946 1082.73278809 1103.86599731 C1082.61251251 1105.50500504 1082.61251251 1105.50500504 1082.48980713 1107.17712402 C1081.138798 1125.43351068 1079.53876934 1143.63693947 1077.36413574 1161.81448364 C1077.26008423 1162.70062347 1077.15603271 1163.58676331 1077.04882812 1164.49975586 C1076.75261094 1167.0053913 1076.44726712 1169.50970045 1076.13757324 1172.01370239 C1076.05121613 1172.73761169 1075.96485901 1173.461521 1075.87588501 1174.20736694 C1075.30352266 1178.67664614 1074.22613984 1182.80364256 1072.98913574 1187.12698364 C1072.37406511 1190.30147012 1071.88878358 1193.49294818 1071.40319824 1196.68948364 C1071.10912001 1198.55800355 1070.81484263 1200.42649212 1070.52038574 1202.29495239 C1070.06783826 1205.19896128 1069.61777012 1208.10331208 1069.17175293 1211.0083313 C1067.57770754 1221.34841951 1065.83637424 1231.42589236 1062.97546387 1241.49856567 C1061.89158332 1245.48585099 1061.00637188 1249.48385506 1060.17272949 1253.52932739 C1059.9549585 1254.58284897 1059.9549585 1254.58284897 1059.73278809 1255.65765381 C1059.14483216 1258.52003841 1058.56384026 1261.38378788 1057.9864502 1264.24832153 C1055.15131833 1278.25748559 1055.15131833 1278.25748559 1052.75500488 1284.03543091 C1050.8502209 1289.23730671 1049.77787922 1294.7469017 1048.48913574 1300.12698364 C1045.12462463 1314.17271562 1045.12462463 1314.17271562 1042.74841309 1320.09671021 C1040.67934267 1325.62931137 1039.27341924 1331.42302689 1037.68249512 1337.10745239 C1036.06218675 1342.78755342 1034.22059884 1348.23350997 1031.95959473 1353.68899536 C1030.32213324 1357.80262817 1029.03866142 1362.02189496 1027.73913574 1366.25198364 C1027.33694824 1367.54362427 1027.33694824 1367.54362427 1026.92663574 1368.86135864 C1026.27721354 1370.94878715 1025.63264468 1373.03772463 1024.98913574 1375.12698364 C1024.32913574 1375.12698364 1023.66913574 1375.12698364 1022.98913574 1375.12698364 C1022.78288574 1376.26135864 1022.57663574 1377.39573364 1022.36413574 1378.56448364 C1021.2899016 1383.39853727 1019.74713771 1388.02194686 1018.11413574 1392.68948364 C1017.86969727 1393.39709839 1017.62525879 1394.10471313 1017.37341309 1394.83377075 C1015.84845836 1399.11484086 1014.03691344 1403.10481118 1011.95739746 1407.1423645 C1010.37913468 1410.37728588 1009.19693539 1413.74030357 1007.98913574 1417.12698364 C1006.24546848 1421.89972788 1004.44095135 1426.47182881 1002.04382324 1430.95901489 C1000.55190043 1434.02574513 999.35086956 1437.20147959 998.11413574 1440.37698364 C995.94557176 1445.90132108 993.54956408 1451.20082508 990.83288574 1456.48245239 C988.22302831 1461.58587153 985.77475471 1466.7688953 983.30163574 1471.93948364 C982.82572998 1472.93077271 982.34982422 1473.92206177 981.85949707 1474.94338989 C979.45929572 1479.96341886 977.13086558 1484.99112982 974.98913574 1490.12698364 C974.32913574 1490.12698364 973.66913574 1490.12698364 972.98913574 1490.12698364 C972.58888184 1491.41669067 972.58888184 1491.41669067 972.18054199 1492.73245239 C970.9858498 1496.13634589 969.55625226 1499.22262835 967.92663574 1502.43948364 C967.6300708 1503.02616821 967.33350586 1503.61285278 967.0279541 1504.21731567 C963.11867849 1511.90766109 959.05205508 1519.51707124 954.98913574 1527.12698364 C954.32913574 1527.12698364 953.66913574 1527.12698364 952.98913574 1527.12698364 C952.78288574 1527.89010864 952.57663574 1528.65323364 952.36413574 1529.43948364 C950.43019183 1534.62596958 947.71062114 1539.31731448 944.98913574 1544.12698364 C944.32913574 1544.12698364 943.66913574 1544.12698364 942.98913574 1544.12698364 C942.59661621 1545.43022583 942.59661621 1545.43022583 942.19616699 1546.75979614 C940.9873736 1550.13189939 939.51282804 1552.93216326 937.67663574 1556.00198364 C937.05530762 1557.04483521 936.43397949 1558.08768677 935.79382324 1559.16213989 C933.9289368 1562.2258819 932.04052612 1565.27242831 930.12194824 1568.30276489 C928.32499116 1571.19648544 926.6589572 1574.15841217 924.98913574 1577.12698364 C924.32913574 1577.12698364 923.66913574 1577.12698364 922.98913574 1577.12698364 C922.71456543 1577.85530396 922.43999512 1578.58362427 922.15710449 1579.33401489 C919.06548981 1586.72700651 914.25992723 1593.32507824 909.60241699 1599.80276489 C907.91648358 1602.15617792 907.91648358 1602.15617792 906.40710449 1604.91995239 C905.9391748 1605.64827271 905.47124512 1606.37659302 904.98913574 1607.12698364 C904.32913574 1607.12698364 903.66913574 1607.12698364 902.98913574 1607.12698364 C902.72487793 1607.85530396 902.46062012 1608.58362427 902.18835449 1609.33401489 C900.98183645 1612.14398362 899.58893558 1614.34007539 897.80163574 1616.81448364 C897.18546387 1617.67557739 896.56929199 1618.53667114 895.93444824 1619.42385864 C895.29249512 1620.31588989 894.65054199 1621.20792114 893.98913574 1622.12698364 C892.71558432 1623.93757482 891.44464656 1625.75000791 890.17663574 1627.56448364 C889.61331543 1628.36756958 889.04999512 1629.17065552 888.46960449 1629.99807739 C887.28999531 1631.69434917 886.13520807 1633.40787515 884.98913574 1635.12698364 C884.32913574 1635.12698364 883.66913574 1635.12698364 882.98913574 1635.12698364 C882.7326123 1635.85788208 882.47608887 1636.58878052 882.21179199 1637.34182739 C880.92999097 1640.26171279 879.46920645 1642.25077802 877.42663574 1644.68948364 C874.29824001 1648.49352201 871.2955378 1652.35634685 868.36413574 1656.31448364 C865.5485515 1660.09101814 862.69087482 1663.75676059 859.57897949 1667.29104614 C857.51633364 1669.67297133 855.53827855 1672.11886939 853.55163574 1674.56448364 C850.3454632 1678.50104055 847.06321849 1682.3429909 843.68835449 1686.13479614 C841.13695654 1689.12609029 838.80393765 1692.27718334 836.46960449 1695.43948364 C835.73677246 1696.27479614 835.73677246 1696.27479614 834.98913574 1697.12698364 C834.32913574 1697.12698364 833.66913574 1697.12698364 832.98913574 1697.12698364 C832.76612793 1697.66838989 832.54312012 1698.20979614 832.31335449 1698.76760864 C830.56854611 1701.87635278 828.23690519 1704.30660452 825.80163574 1706.87698364 C822.67845591 1710.20720078 819.59613718 1713.55812777 816.60241699 1717.00588989 C812.95123681 1721.19996859 809.1758706 1725.26645222 805.36413574 1729.31448364 C804.72218262 1729.99962036 804.08022949 1730.68475708 803.41882324 1731.39065552 C800.72588147 1734.25742447 798.02069395 1737.09551496 795.23522949 1739.87307739 C793.26722099 1741.84793114 791.46337339 1743.86499221 789.67663574 1746.00198364 C786.63599802 1749.51958414 783.36249706 1752.5400154 779.82507324 1755.54885864 C777.41461347 1757.62082832 775.20841254 1759.85222493 772.98913574 1762.12698364 C768.62046024 1766.59042434 764.19039724 1770.8767906 759.45397949 1774.94729614 C756.06927746 1777.94042409 752.78383823 1781.0354538 749.48913574 1784.12698364 C744.40282964 1788.89062546 739.32159442 1793.63760144 733.98913574 1798.12698364 C733.04812012 1798.92362427 732.10710449 1799.72026489 731.13757324 1800.54104614 C723.24668218 1807.12698364 723.24668218 1807.12698364 720.98913574 1807.12698364 C720.74937012 1807.71479614 720.50960449 1808.30260864 720.26257324 1808.90823364 C718.73606434 1811.56791787 717.08240059 1812.82293624 714.61413574 1814.62698364 C711.46955067 1816.94072517 708.73640752 1819.35672214 705.98913574 1822.12698364 C703.6214654 1823.66596936 701.31865599 1824.9805302 698.73913574 1826.12698364 C696.637761 1827.0697831 696.637761 1827.0697831 695.98913574 1830.12698364 C694.02538939 1831.51315754 692.0178259 1832.83772261 689.98913574 1834.12698364 C687.78951852 1835.7513983 685.6411289 1837.44014815 683.48913574 1839.12698364 C679.42496622 1842.31267472 675.30645834 1845.28444893 670.98913574 1848.12698364 C669.68775945 1849.07208962 668.39485893 1850.02907375 667.11413574 1851.00198364 C665.73913574 1852.04365031 664.36413574 1853.08531698 662.98913574 1854.12698364 C662.42758789 1854.55575806 661.86604004 1854.98453247 661.28747559 1855.42630005 C656.08888333 1859.36777582 650.75983882 1863.08633139 645.36413574 1866.75198364 C644.54429199 1867.31143677 643.72444824 1867.87088989 642.87976074 1868.44729614 C641.29781704 1869.52566291 639.71423795 1870.60163574 638.12878418 1871.67483521 C636.79371099 1872.58093006 635.46284987 1873.49330082 634.1385498 1874.41506958 C630.20543961 1877.12698364 630.20543961 1877.12698364 627.98913574 1877.12698364 C627.98913574 1877.78698364 627.98913574 1878.44698364 627.98913574 1879.12698364 C627.0829248 1879.63487427 626.17671387 1880.14276489 625.24304199 1880.66604614 C618.30658696 1884.57686375 611.54938477 1888.60438772 604.98913574 1893.12698364 C600.83951341 1895.91813264 596.65937565 1898.65090587 592.42663574 1901.31448364 C591.33222168 1902.00928833 590.23780762 1902.70409302 589.11022949 1903.41995239 C586.26863434 1904.97411645 584.17212193 1905.72985129 580.98913574 1906.12698364 C580.98913574 1906.78698364 580.98913574 1907.44698364 580.98913574 1908.12698364 C579.92694824 1908.71866333 578.86476074 1909.31034302 577.77038574 1909.91995239 C569.08540718 1914.71788555 569.08540718 1914.71788555 560.61413574 1919.87698364 C557.18622548 1922.0658008 553.63562337 1923.88052628 549.98132324 1925.66213989 C547.62124821 1926.8175291 545.27582891 1927.99321764 542.93444824 1929.18557739 C542.22224121 1929.54675659 541.51003418 1929.90793579 540.77624512 1930.28005981 C539.35689091 1931.00015449 537.93887296 1931.72289031 536.52233887 1932.44851685 C533.36688488 1934.04131028 530.43660236 1935.36045936 526.98913574 1936.12698364 C526.98913574 1936.78698364 526.98913574 1937.44698364 526.98913574 1938.12698364 C526.44611816 1938.36819946 525.90310059 1938.60941528 525.34362793 1938.85794067 C516.20330264 1942.92525004 507.08846642 1946.99370147 498.16882324 1951.52932739 C487.53341217 1956.87316416 476.85820456 1961.97127408 465.68444824 1966.08792114 C463.41013295 1966.96468617 461.32348491 1967.92135617 459.17663574 1969.06448364 C454.66928692 1971.42774476 449.89303309 1973.08920089 445.12585449 1974.84109497 C440.93273117 1976.38575041 436.7923726 1978.00802735 432.67663574 1979.75198364 C428.80480647 1981.38417361 424.92172969 1982.95891657 420.98913574 1984.43948364 C419.68976074 1984.92868286 419.68976074 1984.92868286 418.36413574 1985.42776489 C415.98913574 1986.12698364 415.98913574 1986.12698364 411.98913574 1986.12698364 C411.98913574 1986.78698364 411.98913574 1987.44698364 411.98913574 1988.12698364 C411.17759033 1988.38390991 410.36604492 1988.64083618 409.52990723 1988.9055481 C406.48929291 1989.87002653 403.44970946 1990.83767264 400.4107666 1991.80740356 C399.10094337 1992.22467099 397.79072872 1992.64071196 396.48010254 1993.05545044 C388.3205942 1995.6019347 388.3205942 1995.6019347 380.36413574 1998.70120239 C375.24398842 2000.86422759 369.91255073 2002.18523434 364.55163574 2003.62698364 C356.20989153 2005.8051152 356.20989153 2005.8051152 348.07507324 2008.62698364 C342.25673187 2010.91100259 336.11638362 2012.16889727 330.05163574 2013.62698364 C320.76978682 2015.78543834 320.76978682 2015.78543834 311.68444824 2018.62307739 C304.61892436 2021.08697754 297.12971217 2022.24615673 289.80163574 2023.68948364 C287.49807808 2024.14536338 285.19491999 2024.60298998 282.8926239 2025.06520081 C281.46981529 2025.35066793 280.04627613 2025.63252727 278.62190247 2025.91007996 C275.67180911 2026.50041799 272.84631565 2027.17521511 269.99401855 2028.13845825 C266.4438521 2029.30636725 262.88069863 2029.95695818 259.20397949 2030.56448364 C258.46643936 2030.69008667 257.72889923 2030.8156897 256.9690094 2030.94509888 C254.62227763 2031.3435021 252.27448595 2031.73523193 249.92663574 2032.12698364 C248.37773749 2032.3895912 246.82890868 2032.65260868 245.28015137 2032.91604614 C237.52590251 2034.22923996 229.77051306 2035.49239085 221.98352051 2036.59963989 C218.8376583 2037.11244116 218.8376583 2037.11244116 215.20446777 2038.11160278 C210.72637578 2039.25894952 206.25482713 2039.81286314 201.66491699 2040.31057739 C200.33248962 2040.4607708 200.33248962 2040.4607708 198.97314453 2040.61399841 C196.08330038 2040.93713046 193.1925708 2041.25127343 190.30163574 2041.56448364 C188.82187759 2041.72781189 188.82187759 2041.72781189 187.31222534 2041.8944397 C171.57582811 2043.62938341 155.82879405 2045.07432786 140.03918457 2046.22634888 C138.93443787 2046.30867012 138.93443787 2046.30867012 137.80737305 2046.39265442 C135.83806897 2046.53835958 133.86832739 2046.67811763 131.89855957 2046.81741333 C129.05470916 2046.94833521 129.05470916 2046.94833521 126.98913574 2048.12698364 C125.27046784 2048.2222286 123.54808711 2048.25328718 121.82678223 2048.25396729 C120.73308319 2048.25678711 119.63938416 2048.25960693 118.51254272 2048.26251221 C117.30727936 2048.26048798 116.10201599 2048.25846375 114.86022949 2048.25637817 C113.59518585 2048.25813049 112.33014221 2048.25988281 111.02676392 2048.26168823 C107.55164258 2048.26625649 104.07655085 2048.26447549 100.60142899 2048.26130915 C96.96951465 2048.25878242 93.33760291 2048.26112396 89.70568848 2048.26269531 C83.60583032 2048.26451609 77.50598425 2048.2621131 71.40612793 2048.25735474 C64.34768549 2048.25191229 57.28927193 2048.25367501 50.23083019 2048.25918114 C44.17730302 2048.26371488 38.12378456 2048.26436154 32.07025623 2048.26174247 C28.45181111 2048.26018114 24.83337957 2048.25998203 21.2149353 2048.26327896 C17.18262005 2048.26669616 13.15035481 2048.26196367 9.11804199 2048.25637817 C7.31014694 2048.25941452 7.31014694 2048.25941452 5.46572876 2048.26251221 C4.37202972 2048.25969238 3.27833069 2048.25687256 2.15148926 2048.25396729 C0.72015404 2048.25340175 0.72015404 2048.25340175 -0.74009705 2048.25282478 C-3.01086426 2048.12698364 -3.01086426 2048.12698364 -5.01086426 2047.12698364 C-6.36408714 2046.95014915 -7.72416323 2046.82418315 -9.08532715 2046.72561646 C-9.93530273 2046.66155609 -10.78527832 2046.59749573 -11.66101074 2046.53149414 C-13.05815308 2046.43180832 -13.05815308 2046.43180832 -14.48352051 2046.33010864 C-16.49991447 2046.17743298 -18.51627032 2046.02425317 -20.53259277 2045.87063599 C-22.13301926 2045.75036041 -22.13301926 2045.75036041 -23.76577759 2045.62765503 C-41.58047873 2044.27753596 -59.34015716 2042.6823782 -77.07336426 2040.50198364 C-77.93317902 2040.39793213 -78.79299377 2040.29388062 -79.67886353 2040.18667603 C-82.11467732 2039.88985386 -84.54926303 2039.58472459 -86.98352051 2039.27542114 C-87.68356201 2039.18906403 -88.38360352 2039.10270691 -89.1048584 2039.01373291 C-93.16323569 2038.48076306 -97.03492043 2037.6532749 -100.98429871 2036.62127686 C-104.46643748 2035.77195937 -107.99478961 2035.24032926 -111.53430176 2034.68948364 C-112.3205191 2034.56388062 -113.10673645 2034.43827759 -113.91677856 2034.30886841 C-116.40596044 2033.91159188 -118.89583697 2033.51892342 -121.38586426 2033.12698364 C-147.46056382 2029.00510491 -147.46056382 2029.00510491 -152.75134277 2027.18338013 C-156.58746318 2025.94011049 -160.42925544 2025.10362629 -164.37414551 2024.28713989 C-165.99981404 2023.94282141 -167.62546452 2023.59841769 -169.25109863 2023.25393677 C-171.78483265 2022.72133104 -174.31890566 2022.19041426 -176.85339355 2021.66140747 C-179.31961234 2021.14530034 -181.78440556 2020.62275708 -184.24914551 2020.09963989 C-184.99320145 2019.94640762 -185.73725739 2019.79317535 -186.50386047 2019.63529968 C-191.09590641 2018.65738328 -195.47492172 2017.36206886 -199.91288757 2015.83277893 C-202.73570314 2014.88313543 -205.59216725 2014.13508 -208.47961426 2013.40823364 C-209.62816895 2013.11561646 -210.77672363 2012.82299927 -211.96008301 2012.52151489 C-213.71771973 2012.07872192 -213.71771973 2012.07872192 -215.51086426 2011.62698364 C-222.33793997 2009.90707128 -229.11191702 2008.19125066 -235.76721191 2005.88626099 C-238.35165714 2005.01165547 -240.95508474 2004.2239258 -243.56945801 2003.44338989 C-244.53303223 2003.15528442 -245.49660645 2002.86717896 -246.48937988 2002.57034302 C-248.4573813 2001.98448913 -250.426131 2001.40114289 -252.39562988 2000.82034302 C-257.91150201 1999.16594984 -263.22962256 1997.28989943 -268.55310059 1995.09744263 C-272.67676365 1993.46919581 -276.89993876 1992.17830245 -281.13586426 1990.87698364 C-282.42750488 1990.47479614 -282.42750488 1990.47479614 -283.74523926 1990.06448364 C-285.83266777 1989.41506144 -287.92160524 1988.77049258 -290.01086426 1988.12698364 C-290.01086426 1987.46698364 -290.01086426 1986.80698364 -290.01086426 1986.12698364 C-290.79848145 1986.03030396 -291.58609863 1985.93362427 -292.39758301 1985.83401489 C-297.04871191 1984.9239021 -301.36552817 1983.40252532 -305.82336426 1981.81448364 C-306.67479004 1981.5186438 -307.52621582 1981.22280396 -308.40344238 1980.91799927 C-313.34479953 1979.1755405 -318.13640395 1977.24002372 -322.90515137 1975.07107544 C-326.02685654 1973.67146571 -329.20010842 1972.4368349 -332.38586426 1971.18948364 C-337.77838432 1969.05931347 -343.07118437 1966.78452415 -348.33117676 1964.34182739 C-351.21902991 1963.03261117 -354.13805132 1961.82575648 -357.07336426 1960.62698364 C-362.52815328 1958.37103376 -367.76319183 1955.82390722 -373.01086426 1953.12698364 C-383.52700742 1947.74449572 -394.13973708 1942.75299521 -405.01086426 1938.12698364 C-405.01086426 1937.46698364 -405.01086426 1936.80698364 -405.01086426 1936.12698364 C-406.22773926 1935.77635864 -407.44461426 1935.42573364 -408.69836426 1935.06448364 C-414.58460343 1933.09934295 -419.8272091 1930.12453141 -425.2310791 1927.10940552 C-427.65838743 1925.76955796 -430.11006499 1924.47794614 -432.56237793 1923.18460083 C-439.55297191 1919.49610102 -446.43564539 1915.64555634 -453.28039551 1911.69338989 C-454.83645679 1910.80071382 -456.40632138 1909.92925508 -458.01086426 1909.12698364 C-458.01086426 1908.46698364 -458.01086426 1907.80698364 -458.01086426 1907.12698364 C-458.87195801 1906.87432739 -459.73305176 1906.62167114 -460.62023926 1906.36135864 C-464.19366085 1905.06043557 -467.05452888 1903.41450711 -470.26086426 1901.37698364 C-471.40118234 1900.65904802 -472.54181087 1899.94160525 -473.68273926 1899.22463989 C-474.78102051 1898.53241333 -475.87930176 1897.84018677 -477.01086426 1897.12698364 C-478.84056168 1896.01680237 -480.6735095 1894.91194554 -482.51086426 1893.81448364 C-483.26367676 1893.36460083 -484.01648926 1892.91471802 -484.79211426 1892.45120239 C-486.44187334 1891.46657505 -488.11208464 1890.51605379 -489.79211426 1889.58401489 C-490.52430176 1889.10319458 -491.25648926 1888.62237427 -492.01086426 1888.12698364 C-492.01086426 1887.46698364 -492.01086426 1886.80698364 -492.01086426 1886.12698364 C-492.65023926 1885.90010864 -493.28961426 1885.67323364 -493.94836426 1885.43948364 C-498.14406687 1883.64132538 -502.04986982 1881.38794343 -506.01086426 1879.12698364 C-506.01086426 1878.46698364 -506.01086426 1877.80698364 -506.01086426 1877.12698364 C-506.7211377 1876.87174927 -507.43141113 1876.61651489 -508.16320801 1876.35354614 C-511.25176128 1875.02322279 -513.79715827 1873.39811345 -516.57336426 1871.50198364 C-517.61879395 1870.79171021 -518.66422363 1870.08143677 -519.74133301 1869.34963989 C-520.82027832 1868.61616333 -521.89922363 1867.88268677 -523.01086426 1867.12698364 C-525.13532224 1865.7303255 -527.26030474 1864.3344648 -529.38586426 1862.93948364 C-532.46813862 1860.88997134 -535.46058797 1858.86134421 -538.26086426 1856.43948364 C-541.09359853 1854.05741164 -543.99639979 1852.20846375 -547.17883301 1850.33792114 C-549.0635285 1849.09217359 -550.4175366 1847.72415992 -552.01086426 1846.12698364 C-553.88889066 1844.66629644 -555.7871051 1843.23140944 -557.69836426 1841.81448364 C-558.77390928 1841.01503701 -559.84943004 1840.21555775 -560.92492676 1839.41604614 C-562.45246582 1838.28296021 -562.45246582 1838.28296021 -564.01086426 1837.12698364 C-566.13865296 1835.52607595 -568.26449476 1833.9226303 -570.38977051 1832.31838989 C-571.89820727 1831.20977974 -573.45326301 1830.16538447 -575.01086426 1829.12698364 C-575.01086426 1828.46698364 -575.01086426 1827.80698364 -575.01086426 1827.12698364 C-575.59223145 1826.85370239 -576.17359863 1826.58042114 -576.77258301 1826.29885864 C-582.54179397 1823.27832935 -587.52474844 1818.78253696 -592.40148926 1814.50979614 C-593.87291164 1813.24551574 -595.40826341 1812.05663535 -596.94836426 1810.87698364 C-597.62898926 1810.29948364 -598.30961426 1809.72198364 -599.01086426 1809.12698364 C-599.01086426 1808.46698364 -599.01086426 1807.80698364 -599.01086426 1807.12698364 C-600.03760254 1806.82340942 -600.03760254 1806.82340942 -601.08508301 1806.51370239 C-605.02926594 1804.6442966 -607.70992405 1801.95507528 -610.82336426 1798.93948364 C-612.07649703 1797.74986626 -613.33039681 1796.56105627 -614.58508301 1795.37307739 C-615.18111328 1794.80572876 -615.77714355 1794.23838013 -616.39123535 1793.65383911 C-618.26525746 1791.88716225 -620.18426535 1790.18241302 -622.13586426 1788.50198364 C-626.97556635 1784.31990561 -631.66576575 1779.97485243 -636.36828613 1775.64016724 C-638.07550445 1774.0674355 -639.78524558 1772.49747822 -641.49523926 1770.92776489 C-642.64637493 1769.86927337 -643.79741888 1768.81068208 -644.94836426 1767.75198364 C-645.47969971 1767.26447632 -646.01103516 1766.77696899 -646.55847168 1766.27468872 C-648.95818239 1764.06339918 -651.31216191 1761.82478255 -653.61633301 1759.51370239 C-655.80013706 1757.33702332 -658.04631387 1755.32041583 -660.38586426 1753.31448364 C-664.06555854 1750.07488568 -667.29931289 1746.66190687 -670.46789551 1742.92776489 C-672.52526107 1740.52663698 -674.74805055 1738.33460677 -677.01086426 1736.12698364 C-681.47161967 1731.76093642 -685.75678175 1727.33457277 -689.82336426 1722.59963989 C-693.44121169 1718.51018021 -697.2006027 1714.55165132 -700.94885254 1710.58181763 C-711.01086426 1699.88097021 -711.01086426 1699.88097021 -711.01086426 1697.12698364 C-711.88678223 1696.7692688 -711.88678223 1696.7692688 -712.78039551 1696.40432739 C-715.4805733 1694.8579909 -716.81262974 1693.16030979 -718.69836426 1690.68948364 C-719.39059082 1689.79745239 -720.08281738 1688.90542114 -720.79602051 1687.98635864 C-721.52691895 1687.04276489 -722.25781738 1686.09917114 -723.01086426 1685.12698364 C-726.97086547 1680.22221056 -730.94579283 1675.32964741 -735.07336426 1670.56448364 C-738.85118198 1666.19181617 -742.42800399 1661.65968601 -746.01086426 1657.12698364 C-746.59996582 1656.38319458 -747.18906738 1655.63940552 -747.79602051 1654.87307739 C-751.07841398 1650.69344652 -754.28465397 1646.45965851 -757.44836426 1642.18948364 C-758.1277002 1641.27296021 -758.80703613 1640.35643677 -759.50695801 1639.41213989 C-761.01086426 1637.12698364 -761.01086426 1637.12698364 -761.01086426 1635.12698364 C-762.00086426 1634.79698364 -762.99086426 1634.46698364 -764.01086426 1634.12698364 C-765.58898926 1631.93948364 -765.58898926 1631.93948364 -767.26086426 1629.12698364 C-770.08528703 1624.5193448 -773.1367033 1620.29222179 -776.49914551 1616.06838989 C-781.01086426 1610.27427046 -781.01086426 1610.27427046 -781.01086426 1607.12698364 C-782.00086426 1606.79698364 -782.99086426 1606.46698364 -784.01086426 1606.12698364 C-785.72961426 1603.50979614 -785.72961426 1603.50979614 -787.51086426 1600.25198364 C-789.44960894 1596.72312819 -791.1705941 1593.937897 -794.01086426 1591.12698364 C-795.28673768 1589.13530971 -796.51228589 1587.11090397 -797.69836426 1585.06448364 C-798.63229004 1583.4692688 -798.63229004 1583.4692688 -799.58508301 1581.84182739 C-801.01086426 1579.12698364 -801.01086426 1579.12698364 -801.01086426 1577.12698364 C-801.67086426 1577.12698364 -802.33086426 1577.12698364 -803.01086426 1577.12698364 C-803.7727002 1575.76766724 -803.7727002 1575.76766724 -804.54992676 1574.38088989 C-808.05227045 1568.16997594 -811.61062385 1562.09118586 -815.64367676 1556.20510864 C-817.53364256 1553.33236063 -819.15520919 1550.33646223 -820.79211426 1547.31448364 C-821.98244152 1545.17799881 -823.25432464 1543.12347231 -824.57336426 1541.06448364 C-831.01086426 1530.89893776 -831.01086426 1530.89893776 -831.01086426 1527.12698364 C-831.67086426 1527.12698364 -832.33086426 1527.12698364 -833.01086426 1527.12698364 C-837.89795654 1517.98631103 -842.69067216 1508.81732847 -847.26843262 1499.51760864 C-848.88488482 1496.26604507 -850.54842297 1493.14130993 -852.57336426 1490.12698364 C-855.40119316 1485.83322337 -857.27530852 1481.10595175 -859.2845459 1476.39480591 C-861.73122282 1470.68193726 -864.44701316 1465.16362608 -867.25695801 1459.61917114 C-871.92088962 1450.33285741 -876.17323274 1440.93789432 -879.95251465 1431.25784302 C-881.17287205 1428.15013624 -882.44063349 1425.13608954 -884.01086426 1422.18948364 C-886.35433257 1417.72619752 -887.99133713 1412.98369455 -889.72521973 1408.26101685 C-891.26218294 1404.08503447 -892.88562213 1399.96985754 -894.63586426 1395.87698364 C-901.01086426 1380.79567296 -901.01086426 1380.79567296 -901.01086426 1375.12698364 C-901.67086426 1375.12698364 -902.33086426 1375.12698364 -903.01086426 1375.12698364 C-903.26779053 1374.31543823 -903.5247168 1373.50389282 -903.78942871 1372.66775513 C-904.75390714 1369.62714081 -905.72155325 1366.58755736 -906.69128418 1363.5486145 C-907.1085516 1362.23879127 -907.52459258 1360.92857662 -907.93933105 1359.61795044 C-910.48581532 1351.4584421 -910.48581532 1351.4584421 -913.58508301 1343.50198364 C-915.74810821 1338.38183632 -917.06911495 1333.05039863 -918.51086426 1327.68948364 C-920.6860417 1319.35516569 -920.6860417 1319.35516569 -923.50695801 1311.22854614 C-925.82439524 1305.32730834 -927.09367345 1299.09054241 -928.57336426 1292.93948364 C-929.17552269 1290.44519257 -929.78086797 1287.95166818 -930.38977051 1285.45901489 C-930.78531128 1283.81509766 -930.78531128 1283.81509766 -931.18884277 1282.13796997 C-931.92276274 1279.19612235 -931.92276274 1279.19612235 -932.99499512 1276.76809692 C-934.4036463 1273.10580698 -935.11265048 1269.37688275 -935.88586426 1265.53713989 C-936.14085693 1264.3039225 -936.14085693 1264.3039225 -936.40100098 1263.04579163 C-936.94199468 1260.42789937 -937.47701907 1257.80884229 -938.01086426 1255.18948364 C-938.54504722 1252.57377096 -939.08064593 1249.95838882 -939.62072754 1247.34388733 C-939.95596005 1245.72072053 -940.28784412 1244.09685737 -940.61584473 1242.47221375 C-941.26626753 1239.32006469 -941.94042677 1236.32752452 -943.00866699 1233.28616333 C-944.50650393 1228.56460182 -945.16027015 1223.74469067 -945.92102051 1218.85745239 C-946.0933873 1217.78070755 -946.26575409 1216.70396271 -946.44334412 1215.59458923 C-946.99146612 1212.16862856 -947.53306236 1208.7416857 -948.07336426 1205.31448364 C-948.61758834 1201.86949002 -949.16330254 1198.4247694 -949.71409607 1194.9808197 C-950.05638157 1192.84024071 -950.39482418 1190.69904317 -950.72914124 1188.5572052 C-950.88277634 1187.59563004 -951.03641144 1186.63405487 -951.19470215 1185.64334106 C-951.32856827 1184.79317917 -951.46243439 1183.94301727 -951.60035706 1183.0670929 C-951.82594993 1181.13009305 -951.82594993 1181.13009305 -953.01086426 1180.12698364 C-953.41321226 1177.6169882 -953.75584054 1175.12203032 -954.06164551 1172.59963989 C-954.16045517 1171.80367401 -954.25926483 1171.00770813 -954.36106873 1170.18762207 C-954.68820646 1167.52230704 -955.00656361 1164.85604614 -955.32336426 1162.18948364 C-955.43313599 1161.27780426 -955.54290771 1160.36612488 -955.65600586 1159.42681885 C-957.86512514 1140.94699479 -959.39223017 1122.42684919 -960.75427246 1103.86746216 C-960.87108116 1102.30108505 -960.87108116 1102.30108505 -960.99024963 1100.70306396 C-961.13635645 1098.73257995 -961.27825815 1096.76177836 -961.41539001 1094.79064941 C-961.47944534 1093.92380524 -961.54350067 1093.05696106 -961.60949707 1092.16384888 C-961.663255 1091.40450546 -961.71701294 1090.64516205 -961.7723999 1089.86280823 C-961.83645305 1088.09996482 -961.83645305 1088.09996482 -963.01086426 1087.12698364 C-963.10909519 1085.4970681 -963.13718375 1083.86288378 -963.1378479 1082.23001099 C-963.14207764 1080.63984161 -963.14207764 1080.63984161 -963.14639282 1079.01754761 C-963.14436859 1077.84452087 -963.14234436 1076.67149414 -963.14025879 1075.46292114 C-963.14201111 1074.23543152 -963.14376343 1073.00794189 -963.14556885 1071.74325562 C-963.14922709 1068.36730086 -963.1483539 1064.99140703 -963.14518976 1061.61545563 C-963.14266582 1058.0898378 -963.14500379 1054.56422266 -963.14657593 1051.03860474 C-963.14839752 1045.11688772 -963.14599157 1039.19518315 -963.14123535 1033.27346802 C-963.13579275 1026.41781555 -963.13755541 1019.56219281 -963.14306176 1012.70654106 C-963.14759317 1006.83054283 -963.1482433 1000.95455357 -963.14562309 995.07855415 C-963.14406047 991.56464271 -963.14386613 988.05074527 -963.14715958 984.53683472 C-963.15057258 980.62156001 -963.14584809 976.70631887 -963.14025879 972.79104614 C-963.14228302 971.61801941 -963.14430725 970.44499268 -963.14639282 969.23641968 C-963.143573 968.17630676 -963.14075317 967.11619385 -963.1378479 966.0239563 C-963.13747087 965.09700958 -963.13709385 964.17006287 -963.1367054 963.21502686 C-963.01086426 961.12698364 -963.01086426 961.12698364 -962.01086426 960.12698364 C-961.82682236 958.78730981 -961.70499144 957.43899877 -961.60949707 956.09011841 C-961.54543671 955.22324402 -961.48137634 954.35636963 -961.41537476 953.46322632 C-961.34891754 952.5079303 -961.28246033 951.55263428 -961.21398926 950.56838989 C-961.06128423 948.50821633 -960.90810562 946.44807782 -960.7545166 944.38796997 C-960.67433289 943.29529816 -960.59414917 942.20262634 -960.51153564 941.07684326 C-959.16052652 922.82045661 -957.56049785 904.61702781 -955.38586426 886.43948364 C-955.28181274 885.55334381 -955.17776123 884.66720398 -955.07055664 883.75421143 C-954.77433946 881.24857598 -954.46899563 878.74426683 -954.15930176 876.24026489 C-954.07294464 875.51635559 -953.98658752 874.79244629 -953.89761353 874.04660034 C-953.32525736 869.57736942 -952.24856557 865.45011433 -951.01086426 861.12698364 C-950.39610932 857.96421182 -949.91051271 854.78448378 -949.42492676 851.59963989 C-949.13079953 849.73568493 -948.83652377 847.87175341 -948.54211426 846.00784302 C-948.08999069 843.11264442 -947.64012716 840.21712427 -947.19348145 837.32107544 C-945.55470566 826.73716378 -943.74020462 816.34362973 -941.01037598 805.98416138 C-939.94203273 801.86135851 -938.99578315 797.72511744 -938.08898926 793.56448364 C-937.93670868 792.866129 -937.7844281 792.16777435 -937.62753296 791.44825745 C-937.17011527 789.34156445 -936.7154115 787.23429762 -936.26086426 785.12698364 C-935.94208273 783.65818395 -935.6230731 782.18943374 -935.30383301 780.72073364 C-934.53689805 777.19004622 -933.77298784 773.65871318 -933.01086426 770.12698364 C-932.35086426 770.12698364 -931.69086426 770.12698364 -931.01086426 770.12698364 C-930.91547363 768.92171021 -930.82008301 767.71643677 -930.72180176 766.47463989 C-930.00162189 760.01702711 -928.29829581 753.83294972 -926.63586426 747.56448364 C-926.33164551 746.38434692 -926.02742676 745.20421021 -925.71398926 743.98831177 C-924.30273924 738.59962846 -922.8161433 733.35557981 -920.76574707 728.17703247 C-918.7219544 722.62666796 -917.29736953 716.83887887 -915.70422363 711.14651489 C-914.08391527 705.46641386 -912.24232736 700.02045731 -909.98132324 694.56497192 C-908.34386176 690.45133912 -907.06038993 686.23207233 -905.76086426 682.00198364 C-905.49273926 681.14088989 -905.22461426 680.27979614 -904.94836426 679.39260864 C-904.29894205 677.30518013 -903.65437319 675.21624266 -903.01086426 673.12698364 C-902.35086426 673.12698364 -901.69086426 673.12698364 -901.01086426 673.12698364 C-900.70148926 671.42542114 -900.70148926 671.42542114 -900.38586426 669.68948364 C-899.31163012 664.85543002 -897.76886623 660.23202042 -896.13586426 655.56448364 C-895.89142578 654.8568689 -895.6469873 654.14925415 -895.3951416 653.42019653 C-893.87018688 649.13912643 -892.05864196 645.14915611 -889.97912598 641.11160278 C-888.40086319 637.87668141 -887.21866391 634.51366371 -886.01086426 631.12698364 C-884.26719699 626.3542394 -882.46267987 621.78213848 -880.06555176 617.29495239 C-878.57362894 614.22822216 -877.37259807 611.05248769 -876.13586426 607.87698364 C-873.96662589 602.35092823 -871.57105098 597.04954778 -868.85070801 591.76760864 C-865.75340341 585.71272748 -862.89016807 579.53957309 -859.96911621 573.39846802 C-857.67290503 568.57809941 -855.35618051 563.77229726 -852.95373535 559.00393677 C-851.98428572 557.07407431 -851.03124775 555.13676464 -850.08117676 553.19729614 C-846.76468572 546.4556733 -843.38488712 539.85445894 -839.42883301 533.45901489 C-837.40068066 530.12345855 -835.56992179 526.68936507 -833.71398926 523.25588989 C-824.3524271 506.05724014 -824.3524271 506.05724014 -819.11633301 497.90823364 C-817.8544894 495.87501567 -816.71489276 493.79248884 -815.57336426 491.68948364 C-813.40500056 487.72778771 -810.97520453 484.01173071 -808.43664551 480.27932739 C-806.46892798 477.30888257 -804.7351725 474.24400239 -803.01086426 471.12698364 C-802.35086426 471.12698364 -801.69086426 471.12698364 -801.01086426 471.12698364 C-800.59900879 470.03450317 -800.59900879 470.03450317 -800.17883301 468.91995239 C-797.08721833 461.52696077 -792.28165574 454.92888904 -787.62414551 448.45120239 C-785.9382121 446.09778936 -785.9382121 446.09778936 -784.42883301 443.33401489 C-783.72693848 442.24153442 -783.72693848 442.24153442 -783.01086426 441.12698364 C-782.35086426 441.12698364 -781.69086426 441.12698364 -781.01086426 441.12698364 C-780.61447754 440.03450317 -780.61447754 440.03450317 -780.21008301 438.91995239 C-779.00356497 436.10998367 -777.6106641 433.91389189 -775.82336426 431.43948364 C-775.20203613 430.57323364 -774.58070801 429.70698364 -773.94055176 428.81448364 C-773.30375488 427.92760864 -772.66695801 427.04073364 -772.01086426 426.12698364 C-770.82247993 424.39842462 -769.63495739 422.66927275 -768.44836426 420.93948364 C-765.98640817 417.41378706 -763.37404425 414.17000269 -760.53039551 410.95120239 C-758.13557815 408.0761903 -756.07264 404.98168221 -753.94836426 401.90432739 C-751.73974268 398.7383396 -749.48799768 395.60970562 -747.19836426 392.50198364 C-746.07494629 390.96671021 -746.07494629 390.96671021 -744.92883301 389.40042114 C-743.97943848 388.27506958 -743.97943848 388.27506958 -743.01086426 387.12698364 C-742.35086426 387.12698364 -741.69086426 387.12698364 -741.01086426 387.12698364 C-740.73758301 386.54561646 -740.46430176 385.96424927 -740.18273926 385.36526489 C-737.2342115 379.73357687 -732.87299972 374.88327591 -728.71398926 370.11135864 C-726.58357116 367.62912838 -724.51675331 365.09860268 -722.44836426 362.56448364 C-721.68266113 361.62862427 -720.91695801 360.69276489 -720.12805176 359.72854614 C-718.87477298 358.18853937 -717.62747447 356.64357913 -716.39367676 355.08792114 C-715.30823953 353.73273028 -714.16656721 352.4227718 -713.01086426 351.12698364 C-712.35086426 351.12698364 -711.69086426 351.12698364 -711.01086426 351.12698364 C-710.76465332 350.56237427 -710.51844238 349.99776489 -710.26477051 349.41604614 C-708.79232172 346.72802437 -707.02782146 344.75381208 -704.94836426 342.50198364 C-703.7282666 341.17167114 -703.7282666 341.17167114 -702.48352051 339.81448364 C-701.66754395 338.92760864 -700.85156738 338.04073364 -700.01086426 337.12698364 C-698.63441567 335.58661018 -697.25941202 334.04494432 -695.88586426 332.50198364 C-691.73317513 327.8870694 -687.5043453 323.34572799 -683.26086426 318.81448364 C-682.62261719 318.13240845 -681.98437012 317.45033325 -681.32678223 316.74758911 C-678.67389958 313.92225171 -676.00947392 311.12559726 -673.26477051 308.38870239 C-671.29401317 306.411114 -669.48755931 304.39191421 -667.69836426 302.25198364 C-664.65651266 298.73297885 -661.38120832 295.71181272 -657.84289551 292.70120239 C-655.4328832 290.63033893 -653.2302689 288.40052011 -651.01086426 286.12698364 C-646.29686205 281.32197753 -641.55076727 276.65316554 -636.44055176 272.27151489 C-633.06541282 269.29249355 -629.79341942 266.20731319 -626.51086426 263.12698364 C-603.01914435 241.12698364 -603.01914435 241.12698364 -599.01086426 241.12698364 C-598.76852051 240.53788208 -598.52617676 239.94878052 -598.27648926 239.34182739 C-596.77662176 236.71705927 -595.1881615 235.47693212 -592.76086426 233.68948364 C-591.95648926 233.08620239 -591.15211426 232.48292114 -590.32336426 231.86135864 C-589.56023926 231.28901489 -588.79711426 230.71667114 -588.01086426 230.12698364 C-586.91984327 229.24052909 -585.83526576 228.34600991 -584.76086426 227.43948364 C-577.2541075 221.12698364 -577.2541075 221.12698364 -575.01086426 221.12698364 C-574.68086426 220.13698364 -574.35086426 219.14698364 -574.01086426 218.12698364 C-572.33117676 216.83792114 -572.33117676 216.83792114 -570.13586426 215.50198364 C-565.29494318 212.41647644 -560.96669483 208.88345426 -556.58898926 205.17776489 C-554.15161567 203.23894499 -551.6961567 201.69376692 -549.01086426 200.12698364 C-547.72476335 199.21054048 -546.45312683 198.27338641 -545.19836426 197.31448364 C-543.80253092 196.25198364 -542.40669759 195.18948364 -541.01086426 194.12698364 C-540.17615601 193.49143555 -540.17615601 193.49143555 -539.32458496 192.8430481 C-533.91086768 188.74918432 -528.38672446 184.82678306 -522.82336426 180.93948364 C-521.94744629 180.3239563 -521.07152832 179.70842896 -520.16906738 179.07424927 C-519.31893066 178.47934692 -518.46879395 177.88444458 -517.59289551 177.27151489 C-516.83210693 176.73889038 -516.07131836 176.20626587 -515.28747559 175.65750122 C-508.54843006 171.12698364 -508.54843006 171.12698364 -506.01086426 171.12698364 C-506.01086426 170.46698364 -506.01086426 169.80698364 -506.01086426 169.12698364 C-504.2653287 167.99028609 -502.460749 166.94385975 -500.63586426 165.93948364 C-495.64459699 163.11501358 -490.96302957 160.07495886 -486.29992676 156.74417114 C-482.95870852 154.38365177 -479.51605163 152.23382499 -476.01086426 150.12698364 C-475.03633301 149.53530396 -474.06180176 148.94362427 -473.05773926 148.33401489 C-472.01102051 147.70881958 -470.96430176 147.08362427 -469.88586426 146.43948364 C-468.91391113 145.85811646 -467.94195801 145.27674927 -466.94055176 144.67776489 C-464.01667103 143.13005736 -461.17333241 142.07947776 -458.01086426 141.12698364 C-458.01086426 140.46698364 -458.01086426 139.80698364 -458.01086426 139.12698364 C-457.05566895 138.61909302 -456.10047363 138.11120239 -455.11633301 137.58792114 C-445.37630496 132.40463137 -435.6555634 127.19687682 -426.05554199 121.75735474 C-419.45629281 118.02152673 -412.83082797 114.44696598 -406.01086426 111.12698364 C-404.14934318 110.2009908 -402.29015736 109.2704188 -400.43127441 108.33914185 C-399.06428392 107.65434128 -397.69676752 106.97058953 -396.32873535 106.28787231 C-392.80486909 104.52924255 -389.28628831 102.76119579 -385.77648926 100.97463989 C-379.36834313 97.72254325 -373.02620964 94.60605288 -366.29992676 92.05276489 C-363.79217929 91.03853938 -361.41801631 89.8603696 -359.01086426 88.62698364 C-346.27247416 82.12698364 -346.27247416 82.12698364 -341.01086426 82.12698364 C-341.01086426 81.46698364 -341.01086426 80.80698364 -341.01086426 80.12698364 C-340.33096436 79.87529419 -339.65106445 79.62360474 -338.95056152 79.36428833 C-335.82371307 78.20483836 -332.6985372 77.04094181 -329.57336426 75.87698364 C-328.50408691 75.48124146 -327.43480957 75.08549927 -326.33312988 74.67776489 C-320.84012002 72.62838506 -315.45295425 70.47072074 -310.11755371 68.04251099 C-305.89041467 66.20547641 -301.5056029 64.8010136 -297.14172363 63.32815552 C-293.99867961 62.24800274 -291.06180711 61.15289835 -288.09289551 59.64260864 C-283.98354816 57.62178891 -279.75087306 56.29935177 -275.38586426 54.93948364 C-274.54023926 54.66684692 -273.69461426 54.39421021 -272.82336426 54.11331177 C-272.00609863 53.8561438 -271.18883301 53.59897583 -270.34680176 53.33401489 C-269.60994141 53.10174194 -268.87308105 52.86946899 -268.1138916 52.63015747 C-266.01086426 52.12698364 -266.01086426 52.12698364 -262.01086426 52.12698364 C-262.01086426 51.46698364 -262.01086426 50.80698364 -262.01086426 50.12698364 C-261.08338379 49.87005737 -260.15590332 49.6131311 -259.20031738 49.34841919 C-255.72534322 48.38476443 -252.25171048 47.41634785 -248.77844238 46.44656372 C-247.28140258 46.02926871 -245.78401268 45.61322744 -244.28625488 45.19851685 C-242.12058419 44.59862606 -239.95625632 43.99408156 -237.79211426 43.38870239 C-236.80410828 43.11663216 -236.80410828 43.11663216 -235.79614258 42.83906555 C-232.44650714 41.89727704 -229.19327053 40.84565907 -225.94519043 39.59524536 C-222.43944625 38.25075985 -218.93486967 37.25341866 -215.28039551 36.37307739 C-214.0654541 36.07594849 -212.8505127 35.77881958 -211.59875488 35.47268677 C-209.72993652 35.02312622 -209.72993652 35.02312622 -207.82336426 34.56448364 C-205.32907319 33.96232521 -202.8355488 33.35697993 -200.34289551 32.74807739 C-199.24695068 32.48438354 -198.15100586 32.2206897 -197.02185059 31.94900513 C-194.06897164 31.20739897 -194.06897164 31.20739897 -191.56994629 30.13357544 C-186.35804572 28.08352144 -180.7550271 27.17241864 -175.29138184 25.98538208 C-173.08214988 25.5038984 -170.87562655 25.01117785 -168.66906738 24.51760864 C-167.25320211 24.20702658 -165.83719097 23.89710863 -164.42102051 23.58792114 C-163.14364014 23.30738892 -161.86625977 23.02685669 -160.5501709 22.73782349 C-157.28099853 22.17360542 -154.31837126 22.00793758 -151.01086426 22.12698364 C-151.01086426 21.46698364 -151.01086426 20.80698364 -151.01086426 20.12698364 C-145.4101146 19.1652737 -139.80911243 18.20505198 -134.20788574 17.24612427 C-132.30807848 16.92067273 -130.40833714 16.59483613 -128.50866699 16.26858521 C-125.75567161 15.79585595 -123.00247844 15.32430522 -120.24914551 14.85354614 C-119.35365997 14.70032898 -118.45817444 14.54711182 -117.53555298 14.38925171 C-111.66342488 13.39079508 -105.78521015 12.46270952 -99.88659668 11.63235474 C-96.84171642 11.13706893 -96.84171642 11.13706893 -93.23718262 10.14480591 C-88.76650206 9.000259 -84.30377562 8.44215985 -79.72180176 7.94338989 C-78.39340775 7.79319649 -78.39340775 7.79319649 -77.03817749 7.63996887 C-74.15474453 7.31672312 -71.27041354 7.00259926 -68.38586426 6.68948364 C-67.40130249 6.58059814 -66.41674072 6.47171265 -65.40234375 6.35952759 C-49.40050709 4.59291032 -33.38772312 3.15867221 -17.32873535 2.02761841 C-16.56747345 1.97273758 -15.80621155 1.91785675 -15.0218811 1.86131287 C-12.98108746 1.71527696 -10.9398363 1.57567443 -8.89855957 1.43655396 C-5.46690303 1.06866923 -3.70124153 0.00147035 0 0 Z M-13.01086426 481.12698364 C-14.63837141 481.5466309 -16.26597433 481.96590695 -17.89367676 482.38479614 C-25.46554792 484.3710655 -32.74611468 486.58206384 -39.91711426 489.76370239 C-42.21947186 490.77825139 -44.51335257 491.73124225 -46.85461426 492.64651489 C-58.00539987 497.03484637 -68.5038168 502.37672833 -79.01086426 508.12698364 C-79.01086426 508.78698364 -79.01086426 509.44698364 -79.01086426 510.12698364 C-80.12654785 510.54463989 -80.12654785 510.54463989 -81.26477051 510.97073364 C-85.57487703 512.78551534 -89.18505869 515.46084152 -93.01086426 518.12698364 C-93.59770996 518.53110474 -94.18455566 518.93522583 -94.78918457 519.35159302 C-96.7229267 520.68541209 -98.64896161 522.02973168 -100.57336426 523.37698364 C-101.52167114 524.03150513 -101.52167114 524.03150513 -102.48913574 524.69924927 C-104.03330835 525.7914016 -105.52739046 526.95370991 -107.01086426 528.12698364 C-107.01086426 528.78698364 -107.01086426 529.44698364 -107.01086426 530.12698364 C-107.54453613 530.34483521 -108.07820801 530.56268677 -108.62805176 530.78713989 C-111.86776414 532.60881423 -114.43987936 535.03957788 -117.13586426 537.56448364 C-117.70627441 538.0943689 -118.27668457 538.62425415 -118.86437988 539.17019653 C-123.42323838 543.4584524 -127.65423543 547.95670126 -131.79211426 552.65432739 C-133.32482062 554.36243149 -134.91728881 556.01809226 -136.55383301 557.62698364 C-143.85255307 565.05334428 -149.34327799 574.4366847 -155.01086426 583.12698364 C-155.7398291 584.24266724 -155.7398291 584.24266724 -156.48352051 585.38088989 C-161.66340781 592.8097972 -161.66340781 592.8097972 -164.01086426 601.12698364 C-164.67086426 601.12698364 -165.33086426 601.12698364 -166.01086426 601.12698364 C-167.3529518 604.22743787 -168.6830018 607.33291353 -170.01086426 610.43948364 C-170.39242676 611.32055786 -170.77398926 612.20163208 -171.16711426 613.10940552 C-171.52805176 613.95696411 -171.88898926 614.80452271 -172.26086426 615.67776489 C-172.76359863 616.84819336 -172.76359863 616.84819336 -173.27648926 618.04226685 C-174.17699118 620.23019815 -174.17699118 620.23019815 -174.01086426 623.12698364 C-174.67086426 623.12698364 -175.33086426 623.12698364 -176.01086426 623.12698364 C-176.20720459 623.71600464 -176.40354492 624.30502563 -176.60583496 624.91189575 C-178.13277181 629.4927063 -179.65970866 634.07351685 -181.18664551 638.65432739 C-181.49352295 639.57737671 -181.80040039 640.50042603 -182.11657715 641.45144653 C-182.68014142 643.13752375 -183.24891927 644.82187586 -183.82507324 646.50369263 C-189.14861815 662.11704245 -191.77961059 678.10987399 -193.75476074 694.43630981 C-193.98207886 696.30186523 -193.98207886 696.30186523 -194.21398926 698.20510864 C-194.34450684 699.3230481 -194.47502441 700.44098755 -194.60949707 701.59280396 C-195.01086426 704.12698364 -195.01086426 704.12698364 -196.01086426 705.12698364 C-197.13677267 713.33757292 -197.15885006 721.63674471 -197.14367676 729.90823364 C-197.14463348 731.08357666 -197.14559021 732.25891968 -197.14657593 733.46987915 C-197.14725174 735.93712417 -197.14543959 738.40437102 -197.14123535 740.87161255 C-197.13587863 744.61693368 -197.1412009 748.36213492 -197.14758301 752.10745239 C-197.14692212 754.52021307 -197.14564074 756.93297367 -197.14367676 759.34573364 C-197.1467131 761.00095032 -197.1467131 761.00095032 -197.14981079 762.68960571 C-197.12089289 772.42782311 -196.59271677 781.92475601 -194.53723145 791.45559692 C-193.45544203 796.94582874 -192.8537327 802.51725201 -192.13586426 808.06448364 C-190.96705772 816.80782128 -189.71473219 825.49490034 -187.88586426 834.12698364 C-187.7274707 834.87842651 -187.56907715 835.62986938 -187.40588379 836.40408325 C-186.78591739 839.19913638 -186.11607551 841.8683426 -185.03601074 844.52346802 C-184.00566947 847.1401766 -183.3170825 849.6712624 -182.67883301 852.40823364 C-182.32123901 853.90809814 -182.32123901 853.90809814 -181.9564209 855.43826294 C-181.70626221 856.49054077 -181.45610352 857.5428186 -181.19836426 858.62698364 C-179.3484001 866.21189295 -177.37413765 873.49843644 -174.36242676 880.71682739 C-172.17704839 886.2308023 -170.40756991 891.88548335 -168.5970459 897.53201294 C-166.73561282 903.24722378 -164.51601677 908.66738148 -162.01086426 914.12698364 C-161.02770358 916.43778841 -160.0482382 918.7501707 -159.07336426 921.06448364 C-156.99533326 925.92013212 -154.8248868 930.68110311 -152.41711426 935.38088989 C-151.31779431 937.52761746 -150.23672816 939.68031597 -149.16711426 941.84182739 C-143.358154 953.57462236 -137.24627102 965.10005258 -130.69836426 976.43948364 C-130.26540039 977.19994995 -129.83243652 977.96041626 -129.38635254 978.743927 C-128.31833084 980.57286679 -127.17145136 982.35533789 -126.01086426 984.12698364 C-125.35086426 984.12698364 -124.69086426 984.12698364 -124.01086426 984.12698364 C-123.82523926 984.91073364 -123.63961426 985.69448364 -123.44836426 986.50198364 C-121.8101516 990.63312862 -119.60831501 993.75560364 -117.01086426 997.33792114 C-114.8860635 1000.3010222 -112.88379442 1003.32711297 -110.88586426 1006.37698364 C-108.12353636 1010.54172417 -105.27240863 1014.35045858 -102.01086426 1018.12698364 C-100.98249308 1019.49635518 -99.9620726 1020.8717224 -98.94836426 1022.25198364 C-96.80899807 1025.12981125 -94.58850979 1027.62744858 -92.01086426 1030.12698364 C-90.32566968 1032.01617546 -88.66955203 1033.92933179 -87.01086426 1035.84182739 C-84.09144117 1039.17749635 -81.10669395 1042.45323839 -78.12414551 1045.73245239 C-77.4267627 1046.52264771 -76.72937988 1047.31284302 -76.01086426 1048.12698364 C-75.31605957 1048.88624146 -74.62125488 1049.64549927 -73.90539551 1050.42776489 C-71.5112072 1053.83886617 -70.50211124 1057.1466819 -69.38586426 1061.12698364 C-67.86371274 1066.47217694 -67.86371274 1066.47217694 -65.93273926 1071.67776489 C-60.502546 1086.10459189 -61.63778818 1106.57455078 -67.38586426 1120.56448364 C-68.94952226 1124.00267526 -70.62225317 1127.38003035 -72.32336426 1130.75198364 C-74.15993546 1133.79623192 -74.15993546 1133.79623192 -74.01086426 1136.12698364 C-75.00086426 1136.45698364 -75.99086426 1136.78698364 -77.01086426 1137.12698364 C-78.53815518 1138.88762646 -78.53815518 1138.88762646 -79.94836426 1141.00198364 C-81.58345475 1143.36523444 -82.88662817 1145.03441558 -85.20227051 1146.75979614 C-85.79910645 1147.21096802 -86.39594238 1147.66213989 -87.01086426 1148.12698364 C-87.01086426 1148.78698364 -87.01086426 1149.44698364 -87.01086426 1150.12698364 C-87.58449707 1150.40799927 -88.15812988 1150.68901489 -88.74914551 1150.97854614 C-90.94053323 1152.09127151 -93.06522516 1153.28193687 -95.19836426 1154.50198364 C-103.48795623 1159.10581241 -111.99529222 1162.23129384 -121.01086426 1165.12698364 C-123.01156027 1165.79155862 -125.01175453 1166.45765209 -127.01086426 1167.12698364 C-127.01086426 1167.78698364 -127.01086426 1168.44698364 -127.01086426 1169.12698364 C-127.63090332 1169.26161011 -128.25094238 1169.39623657 -128.88977051 1169.53494263 C-137.50379723 1171.62340526 -145.12470383 1175.27230323 -153.01086426 1179.18948364 C-154.38178352 1179.86196189 -155.75296089 1180.5339142 -157.12438965 1181.20535278 C-167.52380524 1186.31462787 -177.82133219 1191.610358 -188.01086426 1197.12698364 C-188.01086426 1197.78698364 -188.01086426 1198.44698364 -188.01086426 1199.12698364 C-189.29283691 1199.50983521 -189.29283691 1199.50983521 -190.60070801 1199.90042114 C-194.20494487 1201.19679042 -197.26391217 1202.82690259 -200.57336426 1204.75198364 C-201.47864868 1205.27767944 -201.47864868 1205.27767944 -202.40222168 1205.81399536 C-211.09783691 1210.89068514 -219.65831651 1216.16389219 -227.99914551 1221.80667114 C-230.92644863 1223.72789144 -233.94762983 1225.43242843 -237.01086426 1227.12698364 C-237.01086426 1227.78698364 -237.01086426 1228.44698364 -237.01086426 1229.12698364 C-237.74434082 1229.39510864 -238.47781738 1229.66323364 -239.23352051 1229.93948364 C-241.95141139 1231.10156357 -244.05650615 1232.40252442 -246.44836426 1234.12698364 C-247.74580566 1235.05510864 -247.74580566 1235.05510864 -249.06945801 1236.00198364 C-250.04012207 1236.70323364 -251.01078613 1237.40448364 -252.01086426 1238.12698364 C-253.74076084 1239.36516131 -255.47227354 1240.60105485 -257.20397949 1241.83670044 C-258.41140298 1242.69891272 -259.61794307 1243.5623634 -260.8236084 1244.42703247 C-264.3173365 1246.930863 -267.83895354 1249.386214 -271.38586426 1251.81448364 C-275.19609935 1254.46670611 -278.65373134 1257.35468004 -282.10070801 1260.45901489 C-283.90915066 1262.03816624 -285.75877918 1263.46379953 -287.69836426 1264.87698364 C-296.75906792 1271.55703183 -305.11271402 1279.16788015 -313.38195801 1286.78713989 C-315.93375051 1289.05834897 -318.55975476 1291.16198489 -321.26086426 1293.25198364 C-325.15902532 1296.30379278 -328.32160003 1299.56205531 -331.47180176 1303.36917114 C-333.42060345 1305.59495988 -335.693277 1307.30100581 -338.01086426 1309.12698364 C-338.01086426 1309.78698364 -338.01086426 1310.44698364 -338.01086426 1311.12698364 C-339.00086426 1311.45698364 -339.99086426 1311.78698364 -341.01086426 1312.12698364 C-345.02235696 1315.79463411 -348.51682893 1319.93263073 -352.10852051 1324.00588989 C-354.32139681 1326.47322425 -356.66745039 1328.78356978 -359.01086426 1331.12698364 C-366.99583061 1339.69771973 -374.20610367 1348.78773465 -381.36242676 1358.04885864 C-382.86231306 1359.93971057 -384.4135982 1361.75593901 -386.01086426 1363.56448364 C-389.70963428 1367.8307898 -392.84421564 1372.45930408 -396.01086426 1377.12698364 C-396.74434082 1378.19561646 -397.47781738 1379.26424927 -398.23352051 1380.36526489 C-398.96441895 1381.44163208 -399.69531738 1382.51799927 -400.44836426 1383.62698364 C-401.1277002 1384.62729614 -401.80703613 1385.62760864 -402.50695801 1386.65823364 C-404.18427992 1388.9298632 -404.18427992 1388.9298632 -404.01086426 1391.12698364 C-404.67086426 1391.12698364 -405.33086426 1391.12698364 -406.01086426 1391.12698364 C-407.3494495 1393.41572537 -408.6818744 1395.70768021 -410.01086426 1398.00198364 C-410.58320801 1398.97844849 -410.58320801 1398.97844849 -411.16711426 1399.97463989 C-413.28637581 1403.33048566 -413.28637581 1403.33048566 -414.01086426 1407.12698364 C-414.67086426 1407.12698364 -415.33086426 1407.12698364 -416.01086426 1407.12698364 C-417.34905924 1409.74960685 -418.68157936 1412.37484963 -420.01086426 1415.00198364 C-420.39242676 1415.74835083 -420.77398926 1416.49471802 -421.16711426 1417.26370239 C-421.70852051 1418.33684692 -421.70852051 1418.33684692 -422.26086426 1419.43167114 C-422.59602051 1420.09151001 -422.93117676 1420.75134888 -423.27648926 1421.43118286 C-424.14332839 1423.12486914 -424.14332839 1423.12486914 -424.01086426 1425.12698364 C-424.67086426 1425.12698364 -425.33086426 1425.12698364 -426.01086426 1425.12698364 C-426.26255371 1425.69094849 -426.51424316 1426.25491333 -426.77355957 1426.83596802 C-427.93417547 1429.43379022 -429.09750274 1432.0303899 -430.26086426 1434.62698364 C-430.65660645 1435.51385864 -431.05234863 1436.40073364 -431.46008301 1437.31448364 C-433.26684727 1441.34267937 -435.09449114 1445.33659728 -437.12023926 1449.25979614 C-439.12951808 1453.22426552 -440.59782662 1457.29392651 -442.01086426 1461.50198364 C-443.54872631 1466.03107189 -445.14896832 1470.48588294 -447.00305176 1474.89651489 C-449.31456164 1480.60601028 -450.73122694 1486.45305319 -452.13586426 1492.43948364 C-452.63519746 1494.54052413 -453.13768991 1496.64081685 -453.64367676 1498.74026489 C-453.85911133 1499.6559021 -454.0745459 1500.57153931 -454.29650879 1501.5149231 C-455.01086426 1504.12698364 -455.01086426 1504.12698364 -456.03161621 1506.60183716 C-457.1116333 1509.38683261 -457.59796712 1511.96430586 -458.04602051 1514.91604614 C-458.21553223 1516.02335083 -458.38504395 1517.13065552 -458.55969238 1518.27151489 C-458.7292041 1519.42006958 -458.89871582 1520.56862427 -459.07336426 1521.75198364 C-459.24674316 1522.87733521 -459.42012207 1524.00268677 -459.59875488 1525.16213989 C-462.18547185 1542.30781173 -462.01086426 1558.51419852 -462.01086426 1576.12698364 C-116.83086426 1576.12698364 228.34913574 1576.12698364 583.98913574 1576.12698364 C584.26905384 1553.33470278 584.26905384 1553.33470278 582.67663574 1530.81448364 C582.54128418 1529.62500122 582.40593262 1528.4355188 582.26647949 1527.20999146 C580.92247254 1515.78282122 579.53643297 1504.4760465 575.77868652 1493.56399536 C574.3415032 1489.12801393 573.29828524 1484.58833058 572.17663574 1480.06448364 C569.72879211 1470.44383525 566.68535019 1461.32734352 562.98913574 1452.12698364 C562.13374997 1449.83577174 561.27952582 1447.54412572 560.42663574 1445.25198364 C558.27496151 1439.68092902 555.74317385 1434.42002986 552.98913574 1429.12698364 C552.0705968 1427.27374377 551.15404969 1425.41951579 550.23913574 1423.56448364 C542.50873755 1407.87204174 542.50873755 1407.87204174 533.31335449 1393.02542114 C531.98370008 1391.11919092 530.76275858 1389.17274629 529.55163574 1387.18948364 C526.55649874 1382.36503828 523.27612669 1377.7554738 519.98913574 1373.12698364 C519.18015259 1371.97100606 518.37158074 1370.81474056 517.56335449 1369.65823364 C513.45453161 1363.80743943 509.33536075 1358.15150543 504.50866699 1352.86135864 C502.98794959 1351.12562978 501.67424242 1349.33771871 500.36413574 1347.43948364 C498.19661773 1344.31487976 495.7156202 1341.7885518 492.98913574 1339.12698364 C491.28758111 1337.22876692 489.62045657 1335.30266573 487.95007324 1333.37698364 C478.81321162 1322.81505826 478.81321162 1322.81505826 468.61413574 1313.31448364 C465.99785299 1311.11070335 463.76286524 1308.79863371 461.55163574 1306.18948364 C458.68678272 1302.83025333 455.65556486 1299.96072266 452.28991699 1297.11135864 C449.99552612 1295.13249521 447.77285372 1293.08676388 445.55578613 1291.02200317 C441.19015665 1286.96047785 436.80484002 1283.05896455 431.96179199 1279.56838989 C429.68429586 1277.90423925 427.49629351 1276.14891439 425.30163574 1274.37698364 C420.83221111 1270.78081582 416.305826 1267.26673515 411.74963379 1263.7817688 C408.51108366 1261.30401635 405.30505856 1258.79058834 402.11413574 1256.25198364 C399.53464893 1254.23201787 396.9796173 1252.46493801 394.11413574 1250.87698364 C390.98913574 1249.12698364 390.98913574 1249.12698364 389.68444824 1247.75979614 C387.29529778 1245.45872496 384.58309627 1243.9517461 381.73913574 1242.25198364 C378.1547991 1240.09141969 374.60172931 1237.93763688 371.23913574 1235.43948364 C368.11117771 1233.2138212 364.96613102 1231.40815752 361.59460449 1229.59182739 C357.26603367 1227.15822311 353.09704422 1224.46199835 348.90710449 1221.79885864 C346.48036305 1220.4084365 344.71315139 1219.57548985 341.98913574 1219.12698364 C341.98913574 1218.46698364 341.98913574 1217.80698364 341.98913574 1217.12698364 C340.92694824 1216.60749146 339.86476074 1216.08799927 338.77038574 1215.55276489 C335.84900173 1214.11420458 332.93092323 1212.66940782 330.02038574 1211.20901489 C329.00814941 1210.70205078 329.00814941 1210.70205078 327.97546387 1210.18484497 C325.29028549 1208.75479606 322.75522964 1207.12873305 320.21179199 1205.46292114 C314.37026147 1201.95184304 308.11924245 1199.09686639 301.98913574 1196.12698364 C301.2807959 1195.78248169 300.57245605 1195.43797974 299.84265137 1195.08303833 C297.7911463 1194.08942919 295.73513195 1193.10601526 293.67663574 1192.12698364 C293.04878174 1191.82421509 292.42092773 1191.52144653 291.77404785 1191.20950317 C288.97306334 1189.89443265 287.12659169 1189.12698364 283.98913574 1189.12698364 C283.98913574 1188.46698364 283.98913574 1187.80698364 283.98913574 1187.12698364 C283.36982178 1186.87529419 282.75050781 1186.62360474 282.11242676 1186.36428833 C279.25822033 1185.20334539 276.40492542 1184.04017777 273.55163574 1182.87698364 C272.57774902 1182.48124146 271.6038623 1182.08549927 270.60046387 1181.67776489 C266.12613255 1179.852118 261.67167956 1178.00491694 257.26647949 1176.01760864 C253.23368861 1174.20558523 249.14336707 1172.63560936 244.98913574 1171.12698364 C240.7511032 1169.56896961 236.57107987 1168.0034071 232.48913574 1166.06448364 C228.29499087 1164.12683776 223.95357124 1162.75549982 219.55163574 1161.37698364 C218.84007324 1161.15389526 218.12851074 1160.93080688 217.39538574 1160.70095825 C213.75907121 1159.53160157 213.75907121 1159.53160157 209.98913574 1159.12698364 C209.98913574 1158.46698364 209.98913574 1157.80698364 209.98913574 1157.12698364 C209.18476074 1156.79698364 208.38038574 1156.46698364 207.55163574 1156.12698364 C196.38216702 1150.35871341 188.90118758 1139.3873137 184.79382324 1127.73635864 C184.05061313 1124.86453705 183.44993712 1122.05636383 182.98913574 1119.12698364 C182.80866699 1118.05706177 182.62819824 1116.98713989 182.44226074 1115.88479614 C180.68207044 1101.28735584 182.22743608 1086.83810455 184.62536621 1072.41751099 C185.1686203 1068.99683322 185.58149058 1065.56624235 185.98913574 1062.12698364 C186.64913574 1062.12698364 187.30913574 1062.12698364 187.98913574 1062.12698364 C188.14769043 1061.48631958 188.30624512 1060.84565552 188.46960449 1060.18557739 C190.98334624 1050.86667844 194.60991562 1046.2501663 201.98913574 1040.12698364 C203.35090156 1038.14623337 204.6850669 1036.14618701 205.98913574 1034.12698364 C207.65580241 1032.46031698 209.32246908 1030.79365031 210.98913574 1029.12698364 C213.41484448 1026.19591891 215.7058783 1023.16977366 217.98913574 1020.12698364 C219.09128418 1018.66325317 219.09128418 1018.66325317 220.21569824 1017.16995239 C224.21878592 1012.58153361 224.21878592 1012.58153361 225.98913574 1007.12698364 C226.64913574 1007.12698364 227.30913574 1007.12698364 227.98913574 1007.12698364 C229.18456052 1005.44573352 230.29626417 1003.70450281 231.36413574 1001.93948364 C233.1136252 999.06091839 234.82241236 996.33305375 236.94226074 993.71292114 C239.39771459 990.61080196 241.36515809 987.34647821 243.36413574 983.93948364 C244.16354353 982.59048301 244.96302268 981.24152466 245.76257324 979.89260864 C246.33830078 978.9171106 246.33830078 978.9171106 246.92565918 977.92190552 C248.26191521 975.66659001 249.62588715 973.42856234 250.98913574 971.18948364 C260.21377136 955.77262025 268.70959254 940.02799423 275.56726074 923.40823364 C276.6316278 920.95200196 277.74831735 918.61725682 278.97351074 916.24417114 C281.02644934 912.19063516 282.54282298 908.05309376 283.98913574 903.75198364 C285.54540014 899.21790458 287.10262219 894.72420908 288.98913574 890.31448364 C291.38583703 884.50824914 293.05050942 878.45895692 294.79577637 872.43240356 C295.88343033 868.69887825 297.00125633 865.09674698 298.45007324 861.48245239 C300.91582955 855.08767328 302.10200218 848.24678912 303.55163574 841.56448364 C304.00830551 839.47861361 304.46669263 837.39314365 304.92735291 835.30815125 C305.3439802 833.4196457 305.75569825 831.53005906 306.16711426 829.64041138 C306.72388052 827.26071929 307.34659224 824.89566991 308.0279541 822.5486145 C322.052385 772.62420529 319.06574893 705.67411124 304.63464355 656.36965942 C303.9566528 654.01412878 303.32403345 651.6497134 302.70007324 649.27932739 C300.03483826 639.12732686 300.03483826 639.12732686 296.07116699 629.43167114 C294.92422121 626.98871804 293.94865741 624.49865332 292.97961426 621.98074341 C287.66400576 608.22465667 280.90753405 595.55564736 272.98913574 583.12698364 C272.03059338 581.52294187 271.07222704 579.91879488 270.11413574 578.31448364 C269.41288574 577.26260864 268.71163574 576.21073364 267.98913574 575.12698364 C267.32913574 575.12698364 266.66913574 575.12698364 265.98913574 575.12698364 C265.72358887 574.38835083 265.45804199 573.64971802 265.18444824 572.88870239 C264.00319867 570.15947545 262.72374055 568.24452867 260.86413574 565.93948364 C259.93601074 564.78126099 259.93601074 564.78126099 258.98913574 563.59963989 C258.32913574 562.78366333 257.66913574 561.96768677 256.98913574 561.12698364 C256.30851074 560.25944458 255.62788574 559.39190552 254.92663574 558.49807739 C244.42106523 545.1472482 230.33579597 530.24784814 215.46960449 521.67385864 C212.98913574 520.12698364 212.98913574 520.12698364 211.09851074 518.18557739 C208.44851935 515.59938209 205.462743 513.94558289 202.23913574 512.18948364 C198.34820999 510.02424253 194.47847717 507.86086047 190.73913574 505.43948364 C186.33180475 502.64162384 181.69840566 500.36949313 176.98913574 498.12698364 C176.12288574 497.71448364 175.25663574 497.30198364 174.36413574 496.87698364 C167.3639559 493.62108604 160.21805355 490.83019778 152.98913574 488.12698364 C152.37602539 487.88617065 151.76291504 487.64535767 151.13122559 487.39724731 C146.15938353 485.46716913 141.1555003 484.00261245 135.98913574 482.68948364 C135.15519287 482.47630493 134.32125 482.26312622 133.46203613 482.04348755 C131.76448407 481.60976033 130.06665172 481.17712855 128.36853027 480.74563599 C126.27227951 480.20060218 124.19108986 479.62204629 122.11022949 479.02151489 C79.44013144 467.21144534 29.45197749 469.77319242 -13.01086426 481.12698364 Z " fill="#BEBEBE" transform="translate(963.0108642578125,-0.126983642578125)"/>
</svg>
